<?xml version="1.0" encoding="UTF-8"?>
<svg width="800" height="450" viewBox="0 0 800 450" xmlns="http://www.w3.org/2000/svg" shape-rendering="geometricPrecision" text-rendering="geometricPrecision">
<rect width="800" height="450" fill="#f8f9fa" rx="15"/>
<g transform="translate(40, 30)">
<rect width="720" height="100" rx="12" fill="#f3e5f5" stroke="#9c27b0" stroke-width="1"/>
<rect width="720" height="30" rx="12" fill="#f3e5f5" stroke="#9c27b0" stroke-width="1"/>
<path d="M0 30 h720" stroke="#9c27b0" stroke-width="1" fill="none"/>
<text x="20" y="20" font-family="JetBrains Mono, monospace" font-size="14" font-weight="bold" fill="#6a1b9a">演示代码</text>
<text x="20" y="55" font-family="JetBrains Mono, monospace" font-size="13" fill="#333333">
<tspan x="20" dy="0"><tspan fill="#6a1b9a">let</tspan> c = <tspan fill="#f57c00">'A'</tspan>; <tspan fill="#78909c">// char</tspan></tspan>
<tspan x="20" dy="1.5em"><tspan fill="#6a1b9a">let</tspan> s = <tspan fill="#f57c00">"A"</tspan>; <tspan fill="#78909c">// &amp;str (UTF-8)</tspan></tspan>
</text>
</g>
<g transform="translate(40, 150)">
<rect width="720" height="120" rx="12" fill="#ffffff" stroke="#e0e0e0" stroke-width="1"/>
<rect width="720" height="35" rx="12" fill="#e3f2fd" stroke="#e0e0e0" stroke-width="1"/>
<text x="20" y="24" font-family="JetBrains Mono, monospace" font-size="14" font-weight="bold" fill="#1565c0">场景 1: ASCII 字符 'A'</text>
<g transform="translate(20, 50)">
<text x="0" y="15" font-family="JetBrains Mono, monospace" font-size="12" fill="#333333">char (4 字节)</text>
<rect x="0" y="25" width="40" height="30" rx="4" fill="#fff8e1" stroke="#ff9800"/>
<rect x="45" y="25" width="40" height="30" rx="4" fill="#fff8e1" stroke="#ff9800"/>
<rect x="90" y="25" width="40" height="30" rx="4" fill="#fff8e1" stroke="#ff9800"/>
<rect x="135" y="25" width="40" height="30" rx="4" fill="#fff8e1" stroke="#ff9800"/>
<text x="20" y="45" text-anchor="middle" font-size="10">0x41</text>
<text x="65" y="45" text-anchor="middle" font-size="10">0x00</text>
<text x="110" y="45" text-anchor="middle" font-size="10">0x00</text>
<text x="155" y="45" text-anchor="middle" font-size="10">0x00</text>
</g>
<g transform="translate(400, 50)">
<text x="0" y="15" font-family="JetBrains Mono, monospace" font-size="12" fill="#333333">UTF-8 (1 字节)</text>
<rect x="0" y="25" width="40" height="30" rx="4" fill="#e8f5e9" stroke="#4caf50"/>
<text x="20" y="45" text-anchor="middle" font-size="10">0x41</text>
<text x="50" y="45" font-size="11" fill="#78909c">(变长存储，更节省空间)</text>
</g>
</g>
<g transform="translate(40, 290)">
<rect width="720" height="120" rx="12" fill="#ffffff" stroke="#e0e0e0" stroke-width="1"/>
<rect width="720" height="35" rx="12" fill="#e3f2fd" stroke="#e0e0e0" stroke-width="1"/>
<text x="20" y="24" font-family="JetBrains Mono, monospace" font-size="14" font-weight="bold" fill="#1565c0">场景 2: Emoji '🦀'</text>
<g transform="translate(20, 50)">
<text x="0" y="15" font-family="JetBrains Mono, monospace" font-size="12" fill="#333333">char (4 字节)</text>
<rect x="0" y="25" width="40" height="30" rx="4" fill="#fff8e1" stroke="#ff9800"/>
<rect x="45" y="25" width="40" height="30" rx="4" fill="#fff8e1" stroke="#ff9800"/>
<rect x="90" y="25" width="40" height="30" rx="4" fill="#fff8e1" stroke="#ff9800"/>
<rect x="135" y="25" width="40" height="30" rx="4" fill="#fff8e1" stroke="#ff9800"/>
<text x="20" y="45" text-anchor="middle" font-size="10">0x80</text>
<text x="65" y="45" text-anchor="middle" font-size="10">0xF9</text>
<text x="110" y="45" text-anchor="middle" font-size="10">0x01</text>
<text x="155" y="45" text-anchor="middle" font-size="10">0x00</text>
</g>
<g transform="translate(400, 50)">
<text x="0" y="15" font-family="JetBrains Mono, monospace" font-size="12" fill="#333333">UTF-8 (4 字节)</text>
<rect x="0" y="25" width="40" height="30" rx="4" fill="#e8f5e9" stroke="#4caf50"/>
<rect x="45" y="25" width="40" height="30" rx="4" fill="#e8f5e9" stroke="#4caf50"/>
<rect x="90" y="25" width="40" height="30" rx="4" fill="#e8f5e9" stroke="#4caf50"/>
<rect x="135" y="25" width="40" height="30" rx="4" fill="#e8f5e9" stroke="#4caf50"/>
<text x="20" y="45" text-anchor="middle" font-size="10">0xF0</text>
<text x="65" y="45" text-anchor="middle" font-size="10">0x9F</text>
<text x="110" y="45" text-anchor="middle" font-size="10">0xA6</text>
<text x="155" y="45" text-anchor="middle" font-size="10">0x80</text>
</g>
</g>
</svg>
