<?xml version="1.0" encoding="UTF-8"?>
<svg width="800" height="1460" viewBox="0 0 800 1460" xmlns="http://www.w3.org/2000/svg" shape-rendering="geometricPrecision" text-rendering="geometricPrecision">
  <rect width="800" height="1460" fill="#f8f9fa" rx="15"/>
  <text x="400" y="45" font-family="JetBrains Mono, monospace" font-size="22" font-weight="bold" fill="#333" text-anchor="middle">出堆演变：Sift Down</text>

  <!-- 1. Code Section (Top) -->
  <g transform="translate(50, 80)">
    <rect width="700" height="150" rx="12" fill="#ffffff" stroke="#e0e0e0" stroke-width="1"/>
    <path d="M0 12 Q0 0 12 0 H688 Q700 0 700 12 V35 H0 Z" fill="#f3e5f5"/>
    <text x="350" y="22" font-family="JetBrains Mono, monospace" font-size="14" font-weight="bold" fill="#6a1b9a" text-anchor="middle">演示代码</text>
    <g transform="translate(30, 50)">
      <text font-family="JetBrains Mono, monospace" font-size="13">
        <tspan x="0" dy="1.2em"><tspan fill="#6a1b9a">fn</tspan> <tspan fill="#2e7d32">main</tspan><tspan fill="#333">() {</tspan></tspan>
        <tspan x="20" dy="1.5em"><tspan fill="#6a1b9a">let</tspan> <tspan fill="#6a1b9a">mut</tspan> <tspan fill="#333">h = </tspan><tspan fill="#1565c0">BinaryHeap</tspan><tspan fill="#333">::</tspan><tspan fill="#2e7d32">from</tspan><tspan fill="#333">([</tspan><tspan fill="#f57c00">30</tspan><tspan fill="#333">, </tspan><tspan fill="#f57c00">20</tspan><tspan fill="#333">, </tspan><tspan fill="#f57c00">15</tspan><tspan fill="#333">, </tspan><tspan fill="#f57c00">10</tspan><tspan fill="#333">]);</tspan></tspan>
        <tspan x="20" dy="1.5em"><tspan fill="#6a1b9a">let</tspan> <tspan fill="#333">_val = h.</tspan><tspan fill="#2e7d32">pop</tspan><tspan fill="#333">(); </tspan><tspan fill="#78909c">// 弹出 30，末位 10 替补并下沉</tspan></tspan>
        <tspan x="0" dy="1.5em"><tspan fill="#333">}</tspan></tspan>
      </text>
    </g>
  </g>

  <!-- 2. Logic Evolution (Middle) -->
  <g transform="translate(50, 270)">
    <rect width="700" height="340" rx="12" fill="#ffffff" stroke="#e0e0e0" stroke-width="1"/>
    <path d="M0 12 Q0 0 12 0 H688 Q700 0 700 12 V35 H0 Z" fill="#fff3e0"/>
    <text x="350" y="22" font-family="JetBrains Mono, monospace" font-size="14" font-weight="bold" fill="#e65100" text-anchor="middle">逻辑演变：Step-by-Step</text>
    
    <!-- Step 1: Initial State -->
    <g transform="translate(40, 60)">
      <text x="90" y="8" font-family="JetBrains Mono, monospace" font-size="12" font-weight="bold" fill="#1565c0" text-anchor="middle">Step 1: 初始状态</text>
      <g transform="translate(0, 20)">
        <circle cx="90" cy="40" r="20" fill="#ffffff" stroke="#e0e0e0" stroke-width="2"/>
        <text x="90" y="45" font-family="JetBrains Mono, monospace" font-size="12" font-weight="bold" fill="#333" text-anchor="middle">30</text>
        <circle cx="50" cy="100" r="20" fill="#ffffff" stroke="#e0e0e0" stroke-width="2"/>
        <text x="50" y="105" font-family="JetBrains Mono, monospace" font-size="12" fill="#333" text-anchor="middle">20</text>
        <circle cx="130" cy="100" r="20" fill="#ffffff" stroke="#e0e0e0" stroke-width="2"/>
        <text x="130" y="105" font-family="JetBrains Mono, monospace" font-size="12" fill="#333" text-anchor="middle">15</text>
        <circle cx="50" cy="160" r="20" fill="#ffffff" stroke="#e0e0e0" stroke-width="2"/>
        <text x="50" y="165" font-family="JetBrains Mono, monospace" font-size="12" fill="#333" text-anchor="middle">10</text>
        <path d="M90 60 L120 85" stroke="#e0e0e0" stroke-width="1"/>
        <path d="M90 60 L60 85" stroke="#e0e0e0" stroke-width="1"/>
        <path d="M50 120 L50 140" stroke="#e0e0e0" stroke-width="1"/>
      </g>
    </g>

    <!-- Arrow 1: Pop -->
    <g transform="translate(245, 140)">
      <path d="M-30 0 L30 0" stroke="#cfd8dc" stroke-width="2.5" fill="none" marker-end="url(#arrow_gray)"/>
      <text x="0" y="-12" font-family="JetBrains Mono, monospace" font-size="9" font-weight="bold" fill="#90a4ae" text-anchor="middle">Pop &amp; Swap</text>
    </g>

    <!-- Step 2: Replace Root -->
    <g transform="translate(270, 60)">
      <text x="90" y="8" font-family="JetBrains Mono, monospace" font-size="12" font-weight="bold" fill="#1565c0" text-anchor="middle">Step 2: 末位替补</text>
      <g transform="translate(0, 20)">
        <circle cx="90" cy="40" r="20" fill="#ffebee" stroke="#ef5350" stroke-width="2"/>
        <text x="90" y="45" font-family="JetBrains Mono, monospace" font-size="12" font-weight="bold" fill="#c62828" text-anchor="middle">10</text>
        <circle cx="50" cy="100" r="20" fill="#ffffff" stroke="#e0e0e0" stroke-width="2"/>
        <text x="50" y="105" font-family="JetBrains Mono, monospace" font-size="12" fill="#333" text-anchor="middle">20</text>
        <circle cx="130" cy="100" r="20" fill="#ffffff" stroke="#e0e0e0" stroke-width="2"/>
        <text x="130" y="105" font-family="JetBrains Mono, monospace" font-size="12" fill="#333" text-anchor="middle">15</text>
        <path d="M90 60 L120 85" stroke="#e0e0e0" stroke-width="1"/>
        <path d="M90 60 L60 85" stroke="#e0e0e0" stroke-width="1"/>
      </g>
    </g>

    <!-- Arrow 2: Sift Down -->
    <g transform="translate(475, 140)">
      <path d="M-30 0 L30 0" stroke="#cfd8dc" stroke-width="2.5" fill="none" marker-end="url(#arrow_gray)"/>
      <text x="0" y="-12" font-family="JetBrains Mono, monospace" font-size="9" font-weight="bold" fill="#90a4ae" text-anchor="middle">Sift Down</text>
    </g>

    <!-- Step 3: Sink Down -->
    <g transform="translate(500, 60)">
      <text x="90" y="8" font-family="JetBrains Mono, monospace" font-size="12" font-weight="bold" fill="#1565c0" text-anchor="middle">Step 3: 向下沉降</text>
      <g transform="translate(0, 20)">
        <circle cx="90" cy="40" r="20" fill="#ffffff" stroke="#1565c0" stroke-width="2"/>
        <text x="90" y="45" font-family="JetBrains Mono, monospace" font-size="12" font-weight="bold" fill="#333" text-anchor="middle">20</text>
        <circle cx="50" cy="100" r="20" fill="#e1f5fe" stroke="#03a9f4" stroke-width="2"/>
        <text x="50" y="105" font-family="JetBrains Mono, monospace" font-size="12" font-weight="bold" fill="#01579b" text-anchor="middle">10</text>
        <circle cx="130" cy="100" r="20" fill="#ffffff" stroke="#e0e0e0" stroke-width="2"/>
        <text x="130" y="105" font-family="JetBrains Mono, monospace" font-size="12" fill="#333" text-anchor="middle">15</text>
        <path d="M90 60 L120 85" stroke="#e0e0e0" stroke-width="1"/>
        <path d="M90 60 L60 85" stroke="#e0e0e0" stroke-width="1"/>
      </g>
    </g>

    <!-- Logic Description (Centered) -->
    <text x="350" y="310" font-family="JetBrains Mono, monospace" font-size="11" fill="#78909c" text-anchor="middle">30 弹出，末位 10 补位堆顶，随后与较大子节点 20 交换完成下沉。</text>
  </g>

  <!-- 3. Physical Memory Layout (Bottom) -->
  <g transform="translate(20, 680)">
    <rect width="760" height="750" rx="12" fill="#ffffff" stroke="#e0e0e0" stroke-width="1"/>
    <path d="M0 12 Q0 0 12 0 H748 Q760 0 760 12 V35 H0 Z" fill="#e1f5fe"/>
    <text x="380" y="22" font-family="JetBrains Mono, monospace" font-size="14" font-weight="bold" fill="#0277bd" text-anchor="middle">物理内存视角</text>

    <!-- Step 1: Initial State -->
    <g transform="translate(30, 90)">
      <rect x="-10" y="-35" width="220" height="25" rx="12.5" fill="#f3e5f5" opacity="0.5"/>
      <text x="0" y="-18" font-family="JetBrains Mono, monospace" font-size="13" font-weight="bold" fill="#6a1b9a">Step 1: 初始状态 (len=4)</text>
      <!-- Stack -->
      <g transform="translate(0, 0)">
        <rect width="220" height="150" rx="8" fill="#ffffff" stroke="#e0e0e0" stroke-width="1"/>
        <path d="M0 8 Q0 0 8 0 H212 Q220 0 220 8 V30 H0 Z" fill="#e3f2fd"/>
        <text x="110" y="20" font-family="JetBrains Mono, monospace" font-size="12" font-weight="bold" fill="#1565c0" text-anchor="middle">Stack</text>
        <g transform="translate(15, 45)">
          <rect width="190" height="28" rx="4" fill="#fff8e1" stroke="#ff9800" stroke-width="1.5"/>
          <text x="10" y="18" font-family="JetBrains Mono, monospace" font-size="11" fill="#333">ptr</text>
          <text x="180" y="18" font-family="JetBrains Mono, monospace" font-size="11" fill="#333" text-anchor="end">0x700</text>
          <rect y="33" width="190" height="28" rx="4" fill="#fafafa" stroke="#e0e0e0" stroke-width="1"/>
          <text x="10" y="51" font-family="JetBrains Mono, monospace" font-size="11" fill="#333">cap</text>
          <text x="180" y="51" font-family="JetBrains Mono, monospace" font-size="11" fill="#333" text-anchor="end">4</text>
          <rect y="66" width="190" height="28" rx="4" fill="#fafafa" stroke="#e0e0e0" stroke-width="1"/>
          <text x="10" y="84" font-family="JetBrains Mono, monospace" font-size="11" fill="#333">len</text>
          <text x="180" y="84" font-family="JetBrains Mono, monospace" font-size="11" fill="#333" text-anchor="end">4</text>
        </g>
      </g>
      <!-- Heap -->
      <g transform="translate(260, 0)">
        <rect width="450" height="150" rx="8" fill="#ffffff" stroke="#e0e0e0" stroke-width="1"/>
        <path d="M0 8 Q0 0 8 0 H442 Q450 0 450 8 V30 H0 Z" fill="#e8f5e9"/>
        <text x="225" y="20" font-family="JetBrains Mono, monospace" font-size="12" font-weight="bold" fill="#2e7d32" text-anchor="middle">Heap</text>
        <g transform="translate(20, 50)">
          <rect width="80" height="60" rx="6" fill="#ffffff" stroke="#e0e0e0" stroke-width="1.5"/>
          <text x="40" y="35" font-family="JetBrains Mono, monospace" font-size="18" fill="#333" text-anchor="middle">30</text>
          <text x="40" y="75" font-family="JetBrains Mono, monospace" font-size="10" fill="#999" text-anchor="middle">[0]</text>
          <rect x="90" width="80" height="60" rx="6" fill="#ffffff" stroke="#e0e0e0" stroke-width="1.5"/>
          <text x="130" y="35" font-family="JetBrains Mono, monospace" font-size="18" fill="#333" text-anchor="middle">20</text>
          <text x="130" y="75" font-family="JetBrains Mono, monospace" font-size="10" fill="#999" text-anchor="middle">[1]</text>
          <rect x="180" width="80" height="60" rx="6" fill="#ffffff" stroke="#e0e0e0" stroke-width="1.5"/>
          <text x="220" y="35" font-family="JetBrains Mono, monospace" font-size="18" fill="#333" text-anchor="middle">15</text>
          <text x="220" y="75" font-family="JetBrains Mono, monospace" font-size="10" fill="#999" text-anchor="middle">[2]</text>
          <rect x="270" width="80" height="60" rx="6" fill="#ffffff" stroke="#e0e0e0" stroke-width="1.5"/>
          <text x="310" y="35" font-family="JetBrains Mono, monospace" font-size="18" fill="#333" text-anchor="middle">10</text>
          <text x="310" y="75" font-family="JetBrains Mono, monospace" font-size="10" fill="#999" text-anchor="middle">[3]</text>
        </g>
      </g>
      <circle cx="205" cy="59" r="2.5" fill="#ff9800"/>
      <path d="M205,59 L260,59" stroke="#ff9800" stroke-width="2" fill="none" marker-end="url(#arrow_swap)"/>
    </g>

    <!-- Step 2: Replace Root -->
    <g transform="translate(30, 320)">
      <rect x="-10" y="-35" width="220" height="25" rx="12.5" fill="#f3e5f5" opacity="0.5"/>
      <text x="0" y="-18" font-family="JetBrains Mono, monospace" font-size="13" font-weight="bold" fill="#6a1b9a">Step 2: 末位替补 (len=3)</text>
      <!-- Stack -->
      <g transform="translate(0, 0)">
        <rect width="220" height="150" rx="8" fill="#ffffff" stroke="#e0e0e0" stroke-width="1"/>
        <path d="M0 8 Q0 0 8 0 H212 Q220 0 220 8 V30 H0 Z" fill="#e3f2fd"/>
        <text x="110" y="20" font-family="JetBrains Mono, monospace" font-size="12" font-weight="bold" fill="#1565c0" text-anchor="middle">Stack</text>
        <g transform="translate(15, 45)">
          <rect width="190" height="28" rx="4" fill="#fff8e1" stroke="#ff9800" stroke-width="1.5"/>
          <text x="10" y="18" font-family="JetBrains Mono, monospace" font-size="11" fill="#333">ptr</text>
          <text x="180" y="18" font-family="JetBrains Mono, monospace" font-size="11" fill="#333" text-anchor="end">0x700</text>
          <rect y="33" width="190" height="28" rx="4" fill="#fafafa" stroke="#e0e0e0" stroke-width="1"/>
          <text x="10" y="51" font-family="JetBrains Mono, monospace" font-size="11" fill="#333">cap</text>
          <text x="180" y="51" font-family="JetBrains Mono, monospace" font-size="11" fill="#333" text-anchor="end">4</text>
          <rect y="66" width="190" height="28" rx="4" fill="#e1f5fe" stroke="#03a9f4" stroke-width="1.5"/>
          <text x="10" y="84" font-family="JetBrains Mono, monospace" font-size="11" fill="#333">len</text>
          <text x="180" y="84" font-family="JetBrains Mono, monospace" font-size="11" font-weight="bold" fill="#01579b" text-anchor="end">3</text>
        </g>
      </g>
      <!-- Heap -->
      <g transform="translate(260, 0)">
        <rect width="450" height="150" rx="8" fill="#ffffff" stroke="#e0e0e0" stroke-width="1"/>
        <path d="M0 8 Q0 0 8 0 H442 Q450 0 450 8 V30 H0 Z" fill="#e8f5e9"/>
        <text x="225" y="20" font-family="JetBrains Mono, monospace" font-size="12" font-weight="bold" fill="#2e7d32" text-anchor="middle">Heap</text>
        <g transform="translate(20, 50)">
          <rect width="80" height="60" rx="6" fill="#ffebee" stroke="#ef5350" stroke-width="2"/>
          <text x="40" y="35" font-family="JetBrains Mono, monospace" font-size="18" font-weight="bold" fill="#c62828" text-anchor="middle">10</text>
          <text x="40" y="75" font-family="JetBrains Mono, monospace" font-size="10" fill="#999" text-anchor="middle">[0]</text>
          <rect x="90" width="80" height="60" rx="6" fill="#ffffff" stroke="#e0e0e0" stroke-width="1.5"/>
          <text x="130" y="35" font-family="JetBrains Mono, monospace" font-size="18" fill="#333" text-anchor="middle">20</text>
          <text x="130" y="75" font-family="JetBrains Mono, monospace" font-size="10" fill="#999" text-anchor="middle">[1]</text>
          <rect x="180" width="80" height="60" rx="6" fill="#ffffff" stroke="#e0e0e0" stroke-width="1.5"/>
          <text x="220" y="35" font-family="JetBrains Mono, monospace" font-size="18" fill="#333" text-anchor="middle">15</text>
          <text x="220" y="75" font-family="JetBrains Mono, monospace" font-size="10" fill="#999" text-anchor="middle">[2]</text>
          <rect x="270" width="80" height="60" rx="6" fill="#f5f5f5" stroke="#e0e0e0" stroke-width="1" stroke-dasharray="4 2"/>
          <text x="310" y="75" font-family="JetBrains Mono, monospace" font-size="10" fill="#bdbdbd" text-anchor="middle">[3]</text>
        </g>
      </g>
      <circle cx="205" cy="59" r="2.5" fill="#ff9800"/>
      <path d="M205,59 L260,59" stroke="#ff9800" stroke-width="2" fill="none" marker-end="url(#arrow_swap)"/>
    </g>

    <!-- Step 3: Final State -->
    <g transform="translate(30, 550)">
      <rect x="-10" y="-35" width="280" height="25" rx="12.5" fill="#f3e5f5" opacity="0.5"/>
      <text x="0" y="-18" font-family="JetBrains Mono, monospace" font-size="13" font-weight="bold" fill="#6a1b9a">Step 3: 最终状态 (len=3, 已下沉)</text>
      <!-- Stack -->
      <g transform="translate(0, 0)">
        <rect width="220" height="150" rx="8" fill="#ffffff" stroke="#e0e0e0" stroke-width="1"/>
        <path d="M0 8 Q0 0 8 0 H212 Q220 0 220 8 V30 H0 Z" fill="#e3f2fd"/>
        <text x="110" y="20" font-family="JetBrains Mono, monospace" font-size="12" font-weight="bold" fill="#1565c0" text-anchor="middle">Stack</text>
        <g transform="translate(15, 45)">
          <rect width="190" height="28" rx="4" fill="#fff8e1" stroke="#ff9800" stroke-width="1.5"/>
          <text x="10" y="18" font-family="JetBrains Mono, monospace" font-size="11" fill="#333">ptr</text>
          <text x="180" y="18" font-family="JetBrains Mono, monospace" font-size="11" fill="#333" text-anchor="end">0x700</text>
          <rect y="33" width="190" height="28" rx="4" fill="#fafafa" stroke="#e0e0e0" stroke-width="1"/>
          <text x="10" y="51" font-family="JetBrains Mono, monospace" font-size="11" fill="#333">cap</text>
          <text x="180" y="51" font-family="JetBrains Mono, monospace" font-size="11" fill="#333" text-anchor="end">4</text>
          <rect y="66" width="190" height="28" rx="4" fill="#e1f5fe" stroke="#03a9f4" stroke-width="1.5"/>
          <text x="10" y="84" font-family="JetBrains Mono, monospace" font-size="11" fill="#333">len</text>
          <text x="180" y="84" font-family="JetBrains Mono, monospace" font-size="11" font-weight="bold" fill="#01579b" text-anchor="end">3</text>
        </g>
      </g>
      <!-- Heap -->
      <g transform="translate(260, 0)">
        <rect width="450" height="150" rx="8" fill="#ffffff" stroke="#e0e0e0" stroke-width="1"/>
        <path d="M0 8 Q0 0 8 0 H442 Q450 0 450 8 V30 H0 Z" fill="#e8f5e9"/>
        <text x="225" y="20" font-family="JetBrains Mono, monospace" font-size="12" font-weight="bold" fill="#2e7d32" text-anchor="middle">Heap</text>
        <g transform="translate(20, 50)">
          <rect width="80" height="60" rx="6" fill="#e1f5fe" stroke="#03a9f4" stroke-width="2.5"/>
          <text x="40" y="35" font-family="JetBrains Mono, monospace" font-size="18" font-weight="bold" fill="#01579b" text-anchor="middle">20</text>
          <text x="40" y="75" font-family="JetBrains Mono, monospace" font-size="10" fill="#999" text-anchor="middle">[0]</text>
          <rect x="90" width="80" height="60" rx="6" fill="#ffffff" stroke="#e0e0e0" stroke-width="1.5"/>
          <text x="130" y="35" font-family="JetBrains Mono, monospace" font-size="18" fill="#333" text-anchor="middle">10</text>
          <text x="130" y="75" font-family="JetBrains Mono, monospace" font-size="10" fill="#999" text-anchor="middle">[1]</text>
          <rect x="180" width="80" height="60" rx="6" fill="#ffffff" stroke="#e0e0e0" stroke-width="1.5"/>
          <text x="220" y="35" font-family="JetBrains Mono, monospace" font-size="18" fill="#333" text-anchor="middle">15</text>
          <text x="220" y="75" font-family="JetBrains Mono, monospace" font-size="10" fill="#999" text-anchor="middle">[2]</text>
          <rect x="270" width="80" height="60" rx="6" fill="#f5f5f5" stroke="#e0e0e0" stroke-width="1" stroke-dasharray="4 2"/>
          <text x="310" y="75" font-family="JetBrains Mono, monospace" font-size="10" fill="#bdbdbd" text-anchor="middle">[3]</text>
        </g>
      </g>
      <circle cx="205" cy="59" r="2.5" fill="#ff9800"/>
      <path d="M205,59 L260,59" stroke="#ff9800" stroke-width="2" fill="none" marker-end="url(#arrow_swap)"/>
    </g>
  </g>

  <defs>
    <marker id="arrow_gray" markerWidth="10" markerHeight="10" refX="9" refY="5" orientation="auto">
      <path d="M0,0 L0,10 L9,5 Z" fill="#cfd8dc" />
    </marker>
    <marker id="arrow_swap" markerWidth="6" markerHeight="6" refX="5" refY="3" orientation="auto">
      <path d="M0,0 L0,6 L5,3 Z" fill="#ff9800" />
    </marker>
  </defs>
</svg>