<svg xmlns="http://www.w3.org/2000/svg" width="800" height="400" viewBox="0 0 800 400" style="background:#f8f9fa; font-family:'JetBrains Mono', monospace;">
    <!-- Background -->
    <rect width="800" height="400" fill="#f8f9fa"/>
    <text x="400" y="30" font-size="22" font-weight="bold" fill="#333" text-anchor="middle">BinaryHeap Push: 上浮 (Sift Up)</text>

    <!-- Step 1: Append to End -->
    <g transform="translate(50, 60)">
        <rect x="0" y="0" width="320" height="35" rx="8" fill="#e3f2fd"/>
        <text x="160" y="24" font-size="14" font-weight="bold" fill="#1565c0" text-anchor="middle">Step 1: 尾部插入 50</text>
        
        <!-- Tree -->
        <g transform="translate(0, 40)">
             <!-- Edges -->
            <line x1="160" y1="20" x2="80" y2="70" stroke="#ccc" stroke-width="2"/>
            <line x1="160" y1="20" x2="240" y2="70" stroke="#ccc" stroke-width="2"/>
            
            <line x1="80" y1="70" x2="40" y2="120" stroke="#ccc" stroke-width="2"/>
            <line x1="80" y1="70" x2="120" y2="120" stroke="#ccc" stroke-width="2"/>
            <line x1="240" y1="70" x2="200" y2="120" stroke="#ccc" stroke-width="2"/>
            <line x1="240" y1="70" x2="280" y2="120" stroke="#ccc" stroke-width="2"/>

            <!-- New Edge -->
            <line x1="40" y1="120" x2="20" y2="170" stroke="#ff9800" stroke-width="3" stroke-dasharray="4"/>

            <!-- Nodes -->
            <circle cx="160" cy="20" r="18" fill="#fff" stroke="#333"/>
            <text x="160" y="25" font-size="12" text-anchor="middle">100</text>

            <circle cx="80" cy="70" r="18" fill="#fff" stroke="#333"/>
            <text x="80" y="75" font-size="12" text-anchor="middle">19</text>

            <circle cx="240" cy="70" r="18" fill="#fff" stroke="#333"/>
            <text x="240" y="75" font-size="12" text-anchor="middle">36</text>

            <circle cx="40" cy="120" r="18" fill="#fff" stroke="#333"/>
            <text x="40" y="125" font-size="12" text-anchor="middle">17</text>

            <circle cx="120" cy="120" r="18" fill="#fff" stroke="#333"/>
            <text x="120" y="125" font-size="12" text-anchor="middle">3</text>
            
            <circle cx="200" cy="120" r="18" fill="#fff" stroke="#333"/>
            <text x="200" y="125" font-size="12" text-anchor="middle">25</text>
            
            <circle cx="280" cy="120" r="18" fill="#fff" stroke="#333"/>
            <text x="280" y="125" font-size="12" text-anchor="middle">1</text>

            <!-- New Node -->
            <circle cx="20" cy="170" r="18" fill="#fff8e1" stroke="#ff9800" stroke-width="3"/>
            <text x="20" y="175" font-size="12" font-weight="bold" fill="#d84315" text-anchor="middle">50</text>
            
            <!-- Comparison Hints -->
            <text x="80" y="170" font-size="12" fill="#d84315">New Node</text>
            <path d="M60,170 L45,170" stroke="#d84315" marker-end="url(#arrow-red)"/>
        </g>
    </g>

    <!-- Arrow Transition -->
    <g transform="translate(380, 180)">
        <path d="M0,0 L30,0" stroke="#333" stroke-width="4" marker-end="url(#arrow-black)"/>
        <text x="15" y="-10" font-size="12" text-anchor="middle" fill="#333">Sift Up</text>
    </g>

    <!-- Step 2: Final Result -->
    <g transform="translate(430, 60)">
        <rect x="0" y="0" width="320" height="35" rx="8" fill="#e8f5e9"/>
        <text x="160" y="24" font-size="14" font-weight="bold" fill="#2e7d32" text-anchor="middle">Step 2: 恢复堆性质</text>
        
         <!-- Tree -->
        <g transform="translate(0, 40)">
             <!-- Edges -->
            <line x1="160" y1="20" x2="80" y2="70" stroke="#ccc" stroke-width="2"/>
            <line x1="160" y1="20" x2="240" y2="70" stroke="#ccc" stroke-width="2"/>
            
            <line x1="80" y1="70" x2="40" y2="120" stroke="#ccc" stroke-width="2"/>
            <line x1="80" y1="70" x2="120" y2="120" stroke="#ccc" stroke-width="2"/>
            <line x1="240" y1="70" x2="200" y2="120" stroke="#ccc" stroke-width="2"/>
            <line x1="240" y1="70" x2="280" y2="120" stroke="#ccc" stroke-width="2"/>

            <line x1="40" y1="120" x2="20" y2="170" stroke="#ccc" stroke-width="2"/>

            <!-- Nodes -->
            <circle cx="160" cy="20" r="18" fill="#fff" stroke="#333"/>
            <text x="160" y="25" font-size="12" text-anchor="middle">100</text>

            <!-- Promoted Node -->
            <circle cx="80" cy="70" r="18" fill="#fff8e1" stroke="#ff9800" stroke-width="3"/>
            <text x="80" y="75" font-size="12" font-weight="bold" fill="#d84315" text-anchor="middle">50</text>
            <text x="110" y="75" font-size="10" fill="#ff9800" text-anchor="start">&lt; OK</text>

            <circle cx="240" cy="70" r="18" fill="#fff" stroke="#333"/>
            <text x="240" y="75" font-size="12" text-anchor="middle">36</text>

            <!-- Demoted Node 1 -->
            <circle cx="40" cy="120" r="18" fill="#f1f8e9" stroke="#333"/>
            <text x="40" y="125" font-size="12" text-anchor="middle">19</text>

            <circle cx="120" cy="120" r="18" fill="#fff" stroke="#333"/>
            <text x="120" y="125" font-size="12" text-anchor="middle">3</text>
            
            <circle cx="200" cy="120" r="18" fill="#fff" stroke="#333"/>
            <text x="200" y="125" font-size="12" text-anchor="middle">25</text>
            
            <circle cx="280" cy="120" r="18" fill="#fff" stroke="#333"/>
            <text x="280" y="125" font-size="12" text-anchor="middle">1</text>

            <!-- Demoted Node 2 -->
            <circle cx="20" cy="170" r="18" fill="#f1f8e9" stroke="#333"/>
            <text x="20" y="175" font-size="12" text-anchor="middle">17</text>
        </g>
    </g>

    <!-- Legend/Explanation -->
    <g transform="translate(250, 320)">
        <rect x="0" y="0" width="300" height="60" rx="8" fill="#fff" stroke="#ddd"/>
        <text x="15" y="20" font-size="12" font-weight="bold" fill="#333">流程解析:</text>
        <text x="15" y="40" font-size="11" fill="#555">1. 50 > 17 (Parent) -> Swap</text>
        <text x="15" y="55" font-size="11" fill="#555">2. 50 > 19 (Parent) -> Swap</text>
        <text x="150" y="40" font-size="11" fill="#555">3. 50 < 100 (Parent) -> Stop</text>
    </g>

    <defs>
        <marker id="arrow-black" markerWidth="10" markerHeight="10" refX="9" refY="3" orient="auto" markerUnits="strokeWidth">
            <path d="M0,0 L0,6 L9,3 z" fill="#333" />
        </marker>
        <marker id="arrow-red" markerWidth="10" markerHeight="10" refX="9" refY="3" orient="auto" markerUnits="strokeWidth">
            <path d="M0,0 L0,6 L9,3 z" fill="#d84315" />
        </marker>
    </defs>
</svg>