<svg width="600" height="240" viewBox="0 0 600 240" xmlns="http://www.w3.org/2000/svg">
<rect x="0" y="0" width="600" height="240" rx="12" fill="#f8f9fa" stroke="#e0e0e0" stroke-width="1"/>
<rect x="20" y="20" width="240" height="200" rx="10" fill="#e3f2fd" stroke="#2196f3" stroke-width="2"/>
<text x="140" y="50" text-anchor="middle" font-family="monospace" font-size="16" font-weight="bold" fill="#0d47a1">Stack (栈)</text>
<rect x="40" y="80" width="200" height="80" rx="6" fill="#ffffff" stroke="#1565c0" stroke-width="1.5"/>
<text x="55" y="105" font-family="monospace" font-size="14" font-weight="bold" fill="#0d47a1">b: Box&lt;i32&gt;</text>
<line x1="40" y1="115" x2="240" y2="115" stroke="#1565c0" stroke-width="1" stroke-dasharray="4"/>
<text x="55" y="140" font-family="monospace" font-size="12" fill="#333333">ptr: 0x55aa0010</text>
<text x="55" y="155" font-family="monospace" font-size="10" fill="#78909c">(8 bytes on 64-bit)</text>
<rect x="340" y="20" width="240" height="200" rx="10" fill="#e8f5e9" stroke="#4caf50" stroke-width="2"/>
<text x="460" y="50" text-anchor="middle" font-family="monospace" font-size="16" font-weight="bold" fill="#1b5e20">Heap (堆)</text>
<rect x="360" y="80" width="200" height="80" rx="6" fill="#ffffff" stroke="#2e7d32" stroke-width="1.5"/>
<text x="375" y="105" font-family="monospace" font-size="14" font-weight="bold" fill="#1b5e20">i32 Value</text>
<line x1="360" y1="115" x2="560" y2="115" stroke="#2e7d32" stroke-width="1" stroke-dasharray="4"/>
<text x="460" y="145" text-anchor="middle" font-family="monospace" font-size="28" font-weight="bold" fill="#333333">5</text>
<text x="375" y="155" font-family="monospace" font-size="10" fill="#78909c">at: 0x55aa0010</text>
<path d="M 240 130 L 330 130" stroke="#ff9800" stroke-width="3" fill="none"/>
<polygon points="330,125 340,130 330,135" fill="#ff9800"/>
<text x="290" y="120" text-anchor="middle" font-family="monospace" font-size="11" fill="#e65100" font-weight="bold">points to</text>
</svg>
