<svg width="600" height="240" viewBox="0 0 600 240" xmlns="http://www.w3.org/2000/svg">
<rect x="0" y="0" width="600" height="240" rx="12" fill="#f8f9fa" stroke="#e0e0e0" stroke-width="1"/>
<rect x="20" y="20" width="240" height="200" rx="10" fill="#e3f2fd" stroke="#2196f3" stroke-width="2"/>
<text x="140" y="50" text-anchor="middle" font-family="monospace" font-size="16" font-weight="bold" fill="#0d47a1">Stack (栈)</text>
<rect x="40" y="70" width="200" height="60" rx="6" fill="#f5f5f5" stroke="#cccccc" stroke-width="1.5"/>
<text x="55" y="95" font-family="monospace" font-size="14" font-weight="bold" fill="#999999">b1 (Moved/Invalid)</text>
<text x="55" y="115" font-family="monospace" font-size="11" fill="#aaaaaa">ptr: 0x55aa0010</text>
<rect x="40" y="140" width="200" height="60" rx="6" fill="#ffffff" stroke="#1565c0" stroke-width="1.5"/>
<text x="55" y="165" font-family="monospace" font-size="14" font-weight="bold" fill="#0d47a1">b2 (New Owner)</text>
<text x="55" y="185" font-family="monospace" font-size="11" fill="#333333">ptr: 0x55aa0010</text>
<rect x="340" y="20" width="240" height="200" rx="10" fill="#e8f5e9" stroke="#4caf50" stroke-width="2"/>
<text x="460" y="50" text-anchor="middle" font-family="monospace" font-size="16" font-weight="bold" fill="#1b5e20">Heap (堆)</text>
<rect x="360" y="80" width="200" height="80" rx="6" fill="#ffffff" stroke="#2e7d32" stroke-width="1.5"/>
<text x="375" y="105" font-family="monospace" font-size="14" font-weight="bold" fill="#1b5e20">1MB Array (Unmoved)</text>
<text x="460" y="140" text-anchor="middle" font-family="monospace" font-size="14" fill="#333333">[0, 0, 0, ...]</text>
<path d="M 240 170 L 330 130" stroke="#ff9800" stroke-width="3" fill="none" stroke-dasharray="2"/>
<polygon points="328,124 340,130 333,137" fill="#ff9800"/>
<text x="290" y="160" text-anchor="middle" font-family="monospace" font-size="11" fill="#e65100" font-weight="bold" transform="rotate(-24 290 160)">Fast Move</text>
</svg>
