<svg width="700" height="300" viewBox="0 0 700 300" xmlns="http://www.w3.org/2000/svg">
<rect x="0" y="0" width="700" height="300" rx="12" fill="#f8f9fa" stroke="#e0e0e0" stroke-width="1"/>
<rect x="10" y="20" width="180" height="260" rx="10" fill="#e3f2fd" stroke="#2196f3" stroke-width="2"/>
<text x="100" y="45" text-anchor="middle" font-family="monospace" font-size="16" font-weight="bold" fill="#0d47a1">Stack (栈)</text>
<rect x="25" y="70" width="150" height="100" rx="6" fill="#ffffff" stroke="#1565c0" stroke-width="1.5"/>
<text x="35" y="90" font-family="monospace" font-size="12" font-weight="bold" fill="#0d47a1">list: Cons</text>
<rect x="35" y="100" width="130" height="30" fill="#f5f5f5" stroke="#cccccc"/>
<text x="40" y="120" font-family="monospace" font-size="12">1 (i32)</text>
<rect x="35" y="130" width="130" height="30" fill="#ffffff" stroke="#ff9800"/>
<text x="40" y="150" font-family="monospace" font-size="12" fill="#e65100">Box (ptr1)</text>
<rect x="220" y="20" width="460" height="260" rx="10" fill="#e8f5e9" stroke="#4caf50" stroke-width="2"/>
<text x="450" y="45" text-anchor="middle" font-family="monospace" font-size="16" font-weight="bold" fill="#1b5e20">Heap (堆)</text>
<rect x="240" y="70" width="150" height="100" rx="6" fill="#ffffff" stroke="#2e7d32" stroke-width="1.5"/>
<text x="250" y="90" font-family="monospace" font-size="12" font-weight="bold" fill="#1b5e20">Cons (Heap Node)</text>
<rect x="250" y="100" width="130" height="30" fill="#f5f5f5" stroke="#cccccc"/>
<text x="255" y="120" font-family="monospace" font-size="12">2 (i32)</text>
<rect x="250" y="130" width="130" height="30" fill="#ffffff" stroke="#ff9800"/>
<text x="255" y="150" font-family="monospace" font-size="12" fill="#e65100">Box (ptr2)</text>
<rect x="480" y="70" width="150" height="100" rx="6" fill="#ffffff" stroke="#2e7d32" stroke-width="1.5"/>
<text x="490" y="90" font-family="monospace" font-size="12" font-weight="bold" fill="#1b5e20">Nil (Heap Node)</text>
<rect x="490" y="100" width="130" height="60" fill="#eeeeee" stroke="#cccccc"/>
<text x="500" y="135" font-family="monospace" font-size="14" fill="#666666">End of List</text>
<path d="M 165 145 L 230 145" stroke="#ff9800" stroke-width="2" fill="none"/>
<polygon points="230,140 240,145 230,150" fill="#ff9800"/>
<path d="M 380 145 L 470 145" stroke="#ff9800" stroke-width="2" fill="none"/>
<polygon points="470,140 480,145 470,150" fill="#ff9800"/>
</svg>
